<svg xmlns="http://www.w3.org/2000/svg" version="1.1" xmlns:xlink="http://www.w3.org/1999/xlink" xmlns:svgjs="http://svgjs.com/svgjs" width="1440" height="560" preserveAspectRatio="none" viewBox="0 0 1440 560"><g mask="url(&quot;#SvgjsMask1506&quot;)" fill="none"><rect width="1440" height="560" x="0" y="0" fill="url(#SvgjsLinearGradient1507)"></rect><path d="M404.82 446.97L469.78 484.47L469.78 559.47L404.82 596.97L339.87 559.47L339.87 484.47zM469.78 559.47L534.73 596.97L534.73 671.97L469.78 709.47L404.82 671.97L404.82 596.97zM599.68 109.47L664.64 146.97L664.64 221.97L599.68 259.47L534.73 221.97L534.73 146.97zM729.59 109.47L794.55 146.97L794.55 221.97L729.59 259.47L664.64 221.97L664.64 146.97zM989.41 334.47L1054.36 371.97L1054.36 446.97L989.41 484.47L924.45 446.97L924.45 371.97zM1054.36 -3.03L1119.31 34.47L1119.31 109.47L1054.36 146.97L989.41 109.47L989.41 34.47zM1054.36 221.97L1119.31 259.47L1119.31 334.47L1054.36 371.97L989.41 334.47L989.41 259.47zM1054.36 446.97L1119.31 484.47L1119.31 559.47L1054.36 596.97L989.41 559.47L989.41 484.47zM1119.31 559.47L1184.27 596.97L1184.27 671.97L1119.31 709.47L1054.36 671.97L1054.36 596.97zM1314.17 -3.03L1379.13 34.47L1379.13 109.47L1314.17 146.97L1249.22 109.47L1249.22 34.47zM1509.04 559.47L1573.99 596.97L1573.99 671.97L1509.04 709.47L1444.08 671.97L1444.08 596.97z" stroke="rgba(0, 0, 0, 0)" stroke-width="2"></path><path d="M397.32 446.97 a7.5 7.5 0 1 0 15 0 a7.5 7.5 0 1 0 -15 0zM462.28 484.47 a7.5 7.5 0 1 0 15 0 a7.5 7.5 0 1 0 -15 0zM462.28 559.47 a7.5 7.5 0 1 0 15 0 a7.5 7.5 0 1 0 -15 0zM397.32 596.97 a7.5 7.5 0 1 0 15 0 a7.5 7.5 0 1 0 -15 0zM332.37 559.47 a7.5 7.5 0 1 0 15 0 a7.5 7.5 0 1 0 -15 0zM332.37 484.47 a7.5 7.5 0 1 0 15 0 a7.5 7.5 0 1 0 -15 0zM527.23 596.97 a7.5 7.5 0 1 0 15 0 a7.5 7.5 0 1 0 -15 0zM527.23 671.97 a7.5 7.5 0 1 0 15 0 a7.5 7.5 0 1 0 -15 0zM462.28 709.47 a7.5 7.5 0 1 0 15 0 a7.5 7.5 0 1 0 -15 0zM397.32 671.97 a7.5 7.5 0 1 0 15 0 a7.5 7.5 0 1 0 -15 0zM592.18 109.47 a7.5 7.5 0 1 0 15 0 a7.5 7.5 0 1 0 -15 0zM657.14 146.97 a7.5 7.5 0 1 0 15 0 a7.5 7.5 0 1 0 -15 0zM657.14 221.97 a7.5 7.5 0 1 0 15 0 a7.5 7.5 0 1 0 -15 0zM592.18 259.47 a7.5 7.5 0 1 0 15 0 a7.5 7.5 0 1 0 -15 0zM527.23 221.97 a7.5 7.5 0 1 0 15 0 a7.5 7.5 0 1 0 -15 0zM527.23 146.97 a7.5 7.5 0 1 0 15 0 a7.5 7.5 0 1 0 -15 0zM722.09 109.47 a7.5 7.5 0 1 0 15 0 a7.5 7.5 0 1 0 -15 0zM787.05 146.97 a7.5 7.5 0 1 0 15 0 a7.5 7.5 0 1 0 -15 0zM787.05 221.97 a7.5 7.5 0 1 0 15 0 a7.5 7.5 0 1 0 -15 0zM722.09 259.47 a7.5 7.5 0 1 0 15 0 a7.5 7.5 0 1 0 -15 0zM981.91 334.47 a7.5 7.5 0 1 0 15 0 a7.5 7.5 0 1 0 -15 0zM1046.86 371.97 a7.5 7.5 0 1 0 15 0 a7.5 7.5 0 1 0 -15 0zM1046.86 446.97 a7.5 7.5 0 1 0 15 0 a7.5 7.5 0 1 0 -15 0zM981.91 484.47 a7.5 7.5 0 1 0 15 0 a7.5 7.5 0 1 0 -15 0zM916.95 446.97 a7.5 7.5 0 1 0 15 0 a7.5 7.5 0 1 0 -15 0zM916.95 371.97 a7.5 7.5 0 1 0 15 0 a7.5 7.5 0 1 0 -15 0zM1046.86 -3.03 a7.5 7.5 0 1 0 15 0 a7.5 7.5 0 1 0 -15 0zM1111.81 34.47 a7.5 7.5 0 1 0 15 0 a7.5 7.5 0 1 0 -15 0zM1111.81 109.47 a7.5 7.5 0 1 0 15 0 a7.5 7.5 0 1 0 -15 0zM1046.86 146.97 a7.5 7.5 0 1 0 15 0 a7.5 7.5 0 1 0 -15 0zM981.91 109.47 a7.5 7.5 0 1 0 15 0 a7.5 7.5 0 1 0 -15 0zM981.91 34.47 a7.5 7.5 0 1 0 15 0 a7.5 7.5 0 1 0 -15 0zM1046.86 221.97 a7.5 7.5 0 1 0 15 0 a7.5 7.5 0 1 0 -15 0zM1111.81 259.47 a7.5 7.5 0 1 0 15 0 a7.5 7.5 0 1 0 -15 0zM1111.81 334.47 a7.5 7.5 0 1 0 15 0 a7.5 7.5 0 1 0 -15 0zM981.91 259.47 a7.5 7.5 0 1 0 15 0 a7.5 7.5 0 1 0 -15 0zM1111.81 484.47 a7.5 7.5 0 1 0 15 0 a7.5 7.5 0 1 0 -15 0zM1111.81 559.47 a7.5 7.5 0 1 0 15 0 a7.5 7.5 0 1 0 -15 0zM1046.86 596.97 a7.5 7.5 0 1 0 15 0 a7.5 7.5 0 1 0 -15 0zM981.91 559.47 a7.5 7.5 0 1 0 15 0 a7.5 7.5 0 1 0 -15 0zM1176.77 596.97 a7.5 7.5 0 1 0 15 0 a7.5 7.5 0 1 0 -15 0zM1176.77 671.97 a7.5 7.5 0 1 0 15 0 a7.5 7.5 0 1 0 -15 0zM1111.81 709.47 a7.5 7.5 0 1 0 15 0 a7.5 7.5 0 1 0 -15 0zM1046.86 671.97 a7.5 7.5 0 1 0 15 0 a7.5 7.5 0 1 0 -15 0zM1306.67 -3.03 a7.5 7.5 0 1 0 15 0 a7.5 7.5 0 1 0 -15 0zM1371.63 34.47 a7.5 7.5 0 1 0 15 0 a7.5 7.5 0 1 0 -15 0zM1371.63 109.47 a7.5 7.5 0 1 0 15 0 a7.5 7.5 0 1 0 -15 0zM1306.67 146.97 a7.5 7.5 0 1 0 15 0 a7.5 7.5 0 1 0 -15 0zM1241.72 109.47 a7.5 7.5 0 1 0 15 0 a7.5 7.5 0 1 0 -15 0zM1241.72 34.47 a7.5 7.5 0 1 0 15 0 a7.5 7.5 0 1 0 -15 0zM1501.54 559.47 a7.5 7.5 0 1 0 15 0 a7.5 7.5 0 1 0 -15 0zM1566.49 596.97 a7.5 7.5 0 1 0 15 0 a7.5 7.5 0 1 0 -15 0zM1566.49 671.97 a7.5 7.5 0 1 0 15 0 a7.5 7.5 0 1 0 -15 0zM1501.54 709.47 a7.5 7.5 0 1 0 15 0 a7.5 7.5 0 1 0 -15 0zM1436.58 671.97 a7.5 7.5 0 1 0 15 0 a7.5 7.5 0 1 0 -15 0zM1436.58 596.97 a7.5 7.5 0 1 0 15 0 a7.5 7.5 0 1 0 -15 0z" fill="rgba(0, 0, 0, 0)"></path><path d="M10.35 165.02L34.6 179.02L34.6 207.02L10.35 221.02L-13.9 207.02L-13.9 179.02zM34.6 207.02L58.85 221.02L58.85 249.02L34.6 263.02L10.35 249.02L10.35 221.02zM10.35 249.02L34.6 263.02L34.6 291.02L10.35 305.02L-13.9 291.02L-13.9 263.02zM10.35 417.02L34.6 431.02L34.6 459.02L10.35 473.02L-13.9 459.02L-13.9 431.02zM34.6 459.02L58.85 473.02L58.85 501.02L34.6 515.02L10.35 501.02L10.35 473.02zM83.1 39.02L107.35 53.02L107.35 81.02L83.1 95.02L58.85 81.02L58.85 53.02zM58.85 81.02L83.1 95.02L83.1 123.02L58.85 137.02L34.6 123.02L34.6 95.02zM58.85 165.02L83.1 179.02L83.1 207.02L58.85 221.02L34.6 207.02L34.6 179.02zM83.1 207.02L107.35 221.02L107.35 249.02L83.1 263.02L58.85 249.02L58.85 221.02zM83.1 291.02L107.35 305.02L107.35 333.02L83.1 347.02L58.85 333.02L58.85 305.02zM58.85 417.02L83.1 431.02L83.1 459.02L58.85 473.02L34.6 459.02L34.6 431.02zM83.1 459.02L107.35 473.02L107.35 501.02L83.1 515.02L58.85 501.02L58.85 473.02zM83.1 543.02L107.35 557.02L107.35 585.02L83.1 599.02L58.85 585.02L58.85 557.02zM107.35 81.02L131.6 95.02L131.6 123.02L107.35 137.02L83.1 123.02L83.1 95.02zM131.6 375.02L155.85 389.02L155.85 417.02L131.6 431.02L107.35 417.02L107.35 389.02zM155.85 81.02L180.1 95.02L180.1 123.02L155.85 137.02L131.6 123.02L131.6 95.02zM180.1 123.02L204.35 137.02L204.35 165.02L180.1 179.02L155.85 165.02L155.85 137.02zM180.1 291.02L204.35 305.02L204.35 333.02L180.1 347.02L155.85 333.02L155.85 305.02zM180.1 543.02L204.35 557.02L204.35 585.02L180.1 599.02L155.85 585.02L155.85 557.02zM204.35 81.02L228.59 95.02L228.59 123.02L204.35 137.02L180.1 123.02L180.1 95.02zM228.59 123.02L252.84 137.02L252.84 165.02L228.59 179.02L204.35 165.02L204.35 137.02zM228.59 207.02L252.84 221.02L252.84 249.02L228.59 263.02L204.35 249.02L204.35 221.02zM204.35 417.02L228.59 431.02L228.59 459.02L204.35 473.02L180.1 459.02L180.1 431.02zM204.35 501.02L228.59 515.02L228.59 543.02L204.35 557.02L180.1 543.02L180.1 515.02zM252.84 81.02L277.09 95.02L277.09 123.02L252.84 137.02L228.59 123.02L228.59 95.02zM277.09 207.02L301.34 221.02L301.34 249.02L277.09 263.02L252.84 249.02L252.84 221.02zM277.09 291.02L301.34 305.02L301.34 333.02L277.09 347.02L252.84 333.02L252.84 305.02zM252.84 333.02L277.09 347.02L277.09 375.02L252.84 389.02L228.59 375.02L228.59 347.02zM301.34 81.02L325.59 95.02L325.59 123.02L301.34 137.02L277.09 123.02L277.09 95.02zM325.59 123.02L349.84 137.02L349.84 165.02L325.59 179.02L301.34 165.02L301.34 137.02zM301.34 165.02L325.59 179.02L325.59 207.02L301.34 221.02L277.09 207.02L277.09 179.02zM301.34 501.02L325.59 515.02L325.59 543.02L301.34 557.02L277.09 543.02L277.09 515.02zM349.84 -2.98L374.09 11.02L374.09 39.02L349.84 53.02L325.59 39.02L325.59 11.02zM349.84 81.02L374.09 95.02L374.09 123.02L349.84 137.02L325.59 123.02L325.59 95.02zM349.84 165.02L374.09 179.02L374.09 207.02L349.84 221.02L325.59 207.02L325.59 179.02zM349.84 249.02L374.09 263.02L374.09 291.02L349.84 305.02L325.59 291.02L325.59 263.02zM422.59 123.02L446.84 137.02L446.84 165.02L422.59 179.02L398.34 165.02L398.34 137.02zM398.34 333.02L422.59 347.02L422.59 375.02L398.34 389.02L374.09 375.02L374.09 347.02zM422.59 375.02L446.84 389.02L446.84 417.02L422.59 431.02L398.34 417.02L398.34 389.02zM471.09 39.02L495.34 53.02L495.34 81.02L471.09 95.02L446.84 81.02L446.84 53.02zM446.84 165.02L471.09 179.02L471.09 207.02L446.84 221.02L422.59 207.02L422.59 179.02zM446.84 249.02L471.09 263.02L471.09 291.02L446.84 305.02L422.59 291.02L422.59 263.02zM471.09 291.02L495.34 305.02L495.34 333.02L471.09 347.02L446.84 333.02L446.84 305.02zM471.09 375.02L495.34 389.02L495.34 417.02L471.09 431.02L446.84 417.02L446.84 389.02zM519.59 543.02L543.84 557.02L543.84 585.02L519.59 599.02L495.34 585.02L495.34 557.02zM543.84 249.02L568.09 263.02L568.09 291.02L543.84 305.02L519.59 291.02L519.59 263.02zM543.84 333.02L568.09 347.02L568.09 375.02L543.84 389.02L519.59 375.02L519.59 347.02zM543.84 417.02L568.09 431.02L568.09 459.02L543.84 473.02L519.59 459.02L519.59 431.02zM568.09 459.02L592.34 473.02L592.34 501.02L568.09 515.02L543.84 501.02L543.84 473.02zM592.34 -2.98L616.59 11.02L616.59 39.02L592.34 53.02L568.09 39.02L568.09 11.02zM616.59 39.02L640.83 53.02L640.83 81.02L616.59 95.02L592.34 81.02L592.34 53.02zM592.34 165.02L616.59 179.02L616.59 207.02L592.34 221.02L568.09 207.02L568.09 179.02zM592.34 333.02L616.59 347.02L616.59 375.02L592.34 389.02L568.09 375.02L568.09 347.02zM616.59 459.02L640.83 473.02L640.83 501.02L616.59 515.02L592.34 501.02L592.34 473.02zM640.83 -2.98L665.08 11.02L665.08 39.02L640.83 53.02L616.59 39.02L616.59 11.02zM640.83 81.02L665.08 95.02L665.08 123.02L640.83 137.02L616.59 123.02L616.59 95.02zM640.83 249.02L665.08 263.02L665.08 291.02L640.83 305.02L616.59 291.02L616.59 263.02zM665.08 375.02L689.33 389.02L689.33 417.02L665.08 431.02L640.83 417.02L640.83 389.02zM640.83 501.02L665.08 515.02L665.08 543.02L640.83 557.02L616.59 543.02L616.59 515.02zM665.08 543.02L689.33 557.02L689.33 585.02L665.08 599.02L640.83 585.02L640.83 557.02zM689.33 81.02L713.58 95.02L713.58 123.02L689.33 137.02L665.08 123.02L665.08 95.02zM713.58 123.02L737.83 137.02L737.83 165.02L713.58 179.02L689.33 165.02L689.33 137.02zM713.58 207.02L737.83 221.02L737.83 249.02L713.58 263.02L689.33 249.02L689.33 221.02zM713.58 459.02L737.83 473.02L737.83 501.02L713.58 515.02L689.33 501.02L689.33 473.02zM737.83 -2.98L762.08 11.02L762.08 39.02L737.83 53.02L713.58 39.02L713.58 11.02zM762.08 39.02L786.33 53.02L786.33 81.02L762.08 95.02L737.83 81.02L737.83 53.02zM762.08 123.02L786.33 137.02L786.33 165.02L762.08 179.02L737.83 165.02L737.83 137.02zM737.83 165.02L762.08 179.02L762.08 207.02L737.83 221.02L713.58 207.02L713.58 179.02zM762.08 207.02L786.33 221.02L786.33 249.02L762.08 263.02L737.83 249.02L737.83 221.02zM762.08 291.02L786.33 305.02L786.33 333.02L762.08 347.02L737.83 333.02L737.83 305.02zM786.33 -2.98L810.58 11.02L810.58 39.02L786.33 53.02L762.08 39.02L762.08 11.02zM810.58 291.02L834.83 305.02L834.83 333.02L810.58 347.02L786.33 333.02L786.33 305.02zM810.58 375.02L834.83 389.02L834.83 417.02L810.58 431.02L786.33 417.02L786.33 389.02zM810.58 459.02L834.83 473.02L834.83 501.02L810.58 515.02L786.33 501.02L786.33 473.02zM834.83 -2.98L859.08 11.02L859.08 39.02L834.83 53.02L810.58 39.02L810.58 11.02zM834.83 165.02L859.08 179.02L859.08 207.02L834.83 221.02L810.58 207.02L810.58 179.02zM859.08 207.02L883.33 221.02L883.33 249.02L859.08 263.02L834.83 249.02L834.83 221.02zM859.08 459.02L883.33 473.02L883.33 501.02L859.08 515.02L834.83 501.02L834.83 473.02zM907.58 123.02L931.83 137.02L931.83 165.02L907.58 179.02L883.33 165.02L883.33 137.02zM883.33 249.02L907.58 263.02L907.58 291.02L883.33 305.02L859.08 291.02L859.08 263.02zM883.33 333.02L907.58 347.02L907.58 375.02L883.33 389.02L859.08 375.02L859.08 347.02zM907.58 375.02L931.83 389.02L931.83 417.02L907.58 431.02L883.33 417.02L883.33 389.02zM883.33 417.02L907.58 431.02L907.58 459.02L883.33 473.02L859.08 459.02L859.08 431.02zM931.83 -2.98L956.08 11.02L956.08 39.02L931.83 53.02L907.58 39.02L907.58 11.02zM956.08 39.02L980.33 53.02L980.33 81.02L956.08 95.02L931.83 81.02L931.83 53.02zM931.83 81.02L956.08 95.02L956.08 123.02L931.83 137.02L907.58 123.02L907.58 95.02zM956.08 291.02L980.33 305.02L980.33 333.02L956.08 347.02L931.83 333.02L931.83 305.02zM980.33 81.02L1004.58 95.02L1004.58 123.02L980.33 137.02L956.08 123.02L956.08 95.02zM980.33 249.02L1004.58 263.02L1004.58 291.02L980.33 305.02L956.08 291.02L956.08 263.02zM1004.58 375.02L1028.82 389.02L1028.82 417.02L1004.58 431.02L980.33 417.02L980.33 389.02zM1028.82 81.02L1053.07 95.02L1053.07 123.02L1028.82 137.02L1004.58 123.02L1004.58 95.02zM1053.07 123.02L1077.32 137.02L1077.32 165.02L1053.07 179.02L1028.82 165.02L1028.82 137.02zM1053.07 207.02L1077.32 221.02L1077.32 249.02L1053.07 263.02L1028.82 249.02L1028.82 221.02zM1028.82 249.02L1053.07 263.02L1053.07 291.02L1028.82 305.02L1004.58 291.02L1004.58 263.02zM1053.07 375.02L1077.32 389.02L1077.32 417.02L1053.07 431.02L1028.82 417.02L1028.82 389.02zM1077.32 -2.98L1101.57 11.02L1101.57 39.02L1077.32 53.02L1053.07 39.02L1053.07 11.02zM1077.32 81.02L1101.57 95.02L1101.57 123.02L1077.32 137.02L1053.07 123.02L1053.07 95.02zM1101.57 123.02L1125.82 137.02L1125.82 165.02L1101.57 179.02L1077.32 165.02L1077.32 137.02zM1101.57 207.02L1125.82 221.02L1125.82 249.02L1101.57 263.02L1077.32 249.02L1077.32 221.02zM1101.57 291.02L1125.82 305.02L1125.82 333.02L1101.57 347.02L1077.32 333.02L1077.32 305.02zM1077.32 501.02L1101.57 515.02L1101.57 543.02L1077.32 557.02L1053.07 543.02L1053.07 515.02zM1125.82 -2.98L1150.07 11.02L1150.07 39.02L1125.82 53.02L1101.57 39.02L1101.57 11.02zM1150.07 39.02L1174.32 53.02L1174.32 81.02L1150.07 95.02L1125.82 81.02L1125.82 53.02zM1125.82 417.02L1150.07 431.02L1150.07 459.02L1125.82 473.02L1101.57 459.02L1101.57 431.02zM1174.32 -2.98L1198.57 11.02L1198.57 39.02L1174.32 53.02L1150.07 39.02L1150.07 11.02zM1174.32 81.02L1198.57 95.02L1198.57 123.02L1174.32 137.02L1150.07 123.02L1150.07 95.02zM1174.32 165.02L1198.57 179.02L1198.57 207.02L1174.32 221.02L1150.07 207.02L1150.07 179.02zM1198.57 459.02L1222.82 473.02L1222.82 501.02L1198.57 515.02L1174.32 501.02L1174.32 473.02zM1198.57 543.02L1222.82 557.02L1222.82 585.02L1198.57 599.02L1174.32 585.02L1174.32 557.02zM1222.82 81.02L1247.07 95.02L1247.07 123.02L1222.82 137.02L1198.57 123.02L1198.57 95.02zM1222.82 249.02L1247.07 263.02L1247.07 291.02L1222.82 305.02L1198.57 291.02L1198.57 263.02zM1222.82 333.02L1247.07 347.02L1247.07 375.02L1222.82 389.02L1198.57 375.02L1198.57 347.02zM1222.82 501.02L1247.07 515.02L1247.07 543.02L1222.82 557.02L1198.57 543.02L1198.57 515.02zM1247.07 543.02L1271.32 557.02L1271.32 585.02L1247.07 599.02L1222.82 585.02L1222.82 557.02zM1295.57 291.02L1319.82 305.02L1319.82 333.02L1295.57 347.02L1271.32 333.02L1271.32 305.02zM1271.32 417.02L1295.57 431.02L1295.57 459.02L1271.32 473.02L1247.07 459.02L1247.07 431.02zM1295.57 459.02L1319.82 473.02L1319.82 501.02L1295.57 515.02L1271.32 501.02L1271.32 473.02zM1319.82 -2.98L1344.07 11.02L1344.07 39.02L1319.82 53.02L1295.57 39.02L1295.57 11.02zM1344.07 39.02L1368.32 53.02L1368.32 81.02L1344.07 95.02L1319.82 81.02L1319.82 53.02zM1344.07 375.02L1368.32 389.02L1368.32 417.02L1344.07 431.02L1319.82 417.02L1319.82 389.02zM1319.82 417.02L1344.07 431.02L1344.07 459.02L1319.82 473.02L1295.57 459.02L1295.57 431.02zM1368.32 165.02L1392.57 179.02L1392.57 207.02L1368.32 221.02L1344.07 207.02L1344.07 179.02zM1368.32 417.02L1392.57 431.02L1392.57 459.02L1368.32 473.02L1344.07 459.02L1344.07 431.02zM1392.57 543.02L1416.82 557.02L1416.82 585.02L1392.57 599.02L1368.32 585.02L1368.32 557.02zM1441.06 123.02L1465.31 137.02L1465.31 165.02L1441.06 179.02L1416.82 165.02L1416.82 137.02zM1416.82 249.02L1441.06 263.02L1441.06 291.02L1416.82 305.02L1392.57 291.02L1392.57 263.02zM1416.82 333.02L1441.06 347.02L1441.06 375.02L1416.82 389.02L1392.57 375.02L1392.57 347.02z" stroke="url(#SvgjsLinearGradient1508)" stroke-width="2"></path></g><defs><mask id="SvgjsMask1506"><rect width="1440" height="560" fill="#ffffff"></rect></mask><linearGradient x1="84.72%" y1="-39.29%" x2="15.28%" y2="139.29%" gradientUnits="userSpaceOnUse" id="SvgjsLinearGradient1507"><stop stop-color="#0e2a47" offset="0"></stop><stop stop-color="rgba(255, 255, 255, 1)" offset="1"></stop></linearGradient><linearGradient x1="220.03199999999998" y1="-220.02399999999997" x2="1219.9679999999998" y2="780.024" gradientUnits="userSpaceOnUse" id="SvgjsLinearGradient1508"><stop stop-color="#0e2a47" offset="0"></stop><stop stop-color="rgba(231, 36, 36, 1)" offset="1"></stop></linearGradient></defs></svg>