<svg xmlns="http://www.w3.org/2000/svg" version="1.1" xmlns:xlink="http://www.w3.org/1999/xlink" xmlns:svgjs="http://svgjs.com/svgjs" width="1440" height="560" preserveAspectRatio="none" viewBox="0 0 1440 560"><g mask="url(&quot;#SvgjsMask1014&quot;)" fill="none"><rect width="1440" height="560" x="0" y="0" fill="rgba(224, 228, 232, 1)"></rect><path d="M-64.72 373.88L-64.72 373.88" stroke="rgba(196, 164, 138, 1)" stroke-width="1.5"></path><path d="M-64.72 373.88L-60.03 518.69" stroke="rgba(196, 164, 138, 1)" stroke-width="1.5"></path><path d="M-64.72 373.88L78.96 346.35" stroke="rgba(196, 164, 138, 1)" stroke-width="1.5"></path><path d="M-64.72 373.88L226.2 342.84" stroke="rgba(196, 164, 138, 1)" stroke-width="1.5"></path><path d="M-60.03 518.69L-60.03 518.69" stroke="rgba(196, 164, 138, 1)" stroke-width="1.5"></path><path d="M-60.03 518.69L-111.91 706.25" stroke="rgba(196, 164, 138, 1)" stroke-width="1.5"></path><path d="M-60.03 518.69L39.9 709.91" stroke="rgba(196, 164, 138, 1)" stroke-width="1.5"></path><path d="M-60.03 518.69L78.96 346.35" stroke="rgba(196, 164, 138, 1)" stroke-width="1.5"></path><path d="M-111.91 706.25L-111.91 706.25" stroke="rgba(196, 164, 138, 1)" stroke-width="1.5"></path><path d="M-111.91 706.25L39.9 709.91" stroke="rgba(196, 164, 138, 1)" stroke-width="1.5"></path><path d="M78.96 346.35L78.96 346.35" stroke="rgba(196, 164, 138, 1)" stroke-width="1.5"></path><path d="M78.96 346.35L226.2 342.84" stroke="rgba(196, 164, 138, 1)" stroke-width="1.5"></path><path d="M78.96 346.35L213.75 517.89" stroke="rgba(196, 164, 138, 1)" stroke-width="1.5"></path><path d="M39.9 709.91L39.9 709.91" stroke="rgba(196, 164, 138, 1)" stroke-width="1.5"></path><path d="M39.9 709.91L198.18 692.16" stroke="rgba(196, 164, 138, 1)" stroke-width="1.5"></path><path d="M226.2 342.84L226.2 342.84" stroke="rgba(196, 164, 138, 1)" stroke-width="1.5"></path><path d="M226.2 342.84L386.06 372.1" stroke="rgba(196, 164, 138, 1)" stroke-width="1.5"></path><path d="M226.2 342.84L213.75 517.89" stroke="rgba(196, 164, 138, 1)" stroke-width="1.5"></path><path d="M226.2 342.84L398.92 549.14" stroke="rgba(196, 164, 138, 1)" stroke-width="1.5"></path><path d="M213.75 517.89L213.75 517.89" stroke="rgba(196, 164, 138, 1)" stroke-width="1.5"></path><path d="M213.75 517.89L198.18 692.16" stroke="rgba(196, 164, 138, 1)" stroke-width="1.5"></path><path d="M213.75 517.89L398.92 549.14" stroke="rgba(196, 164, 138, 1)" stroke-width="1.5"></path><path d="M213.75 517.89L386.06 372.1" stroke="rgba(196, 164, 138, 1)" stroke-width="1.5"></path><path d="M213.75 517.89L395.47 671.77" stroke="rgba(196, 164, 138, 1)" stroke-width="1.5"></path><path d="M198.18 692.16L198.18 692.16" stroke="rgba(196, 164, 138, 1)" stroke-width="1.5"></path><path d="M198.18 692.16L395.47 671.77" stroke="rgba(196, 164, 138, 1)" stroke-width="1.5"></path><path d="M198.18 692.16L398.92 549.14" stroke="rgba(196, 164, 138, 1)" stroke-width="1.5"></path><path d="M198.18 692.16L-111.91 706.25" stroke="rgba(196, 164, 138, 1)" stroke-width="1.5"></path><path d="M386.06 372.1L386.06 372.1" stroke="rgba(196, 164, 138, 1)" stroke-width="1.5"></path><path d="M386.06 372.1L552.81 351.61" stroke="rgba(196, 164, 138, 1)" stroke-width="1.5"></path><path d="M386.06 372.1L497.55 507.28" stroke="rgba(196, 164, 138, 1)" stroke-width="1.5"></path><path d="M386.06 372.1L398.92 549.14" stroke="rgba(196, 164, 138, 1)" stroke-width="1.5"></path><path d="M398.92 549.14L398.92 549.14" stroke="rgba(196, 164, 138, 1)" stroke-width="1.5"></path><path d="M398.92 549.14L497.55 507.28" stroke="rgba(196, 164, 138, 1)" stroke-width="1.5"></path><path d="M398.92 549.14L395.47 671.77" stroke="rgba(196, 164, 138, 1)" stroke-width="1.5"></path><path d="M395.47 671.77L395.47 671.77" stroke="rgba(196, 164, 138, 1)" stroke-width="1.5"></path><path d="M395.47 671.77L536.39 681.31" stroke="rgba(196, 164, 138, 1)" stroke-width="1.5"></path><path d="M552.81 351.61L552.81 351.61" stroke="rgba(196, 164, 138, 1)" stroke-width="1.5"></path><path d="M552.81 351.61L664.29 341.6" stroke="rgba(196, 164, 138, 1)" stroke-width="1.5"></path><path d="M552.81 351.61L497.55 507.28" stroke="rgba(196, 164, 138, 1)" stroke-width="1.5"></path><path d="M552.81 351.61L645.55 547.05" stroke="rgba(196, 164, 138, 1)" stroke-width="1.5"></path><path d="M552.81 351.61L398.92 549.14" stroke="rgba(196, 164, 138, 1)" stroke-width="1.5"></path><path d="M552.81 351.61L788.73 193.65" stroke="rgba(196, 164, 138, 1)" stroke-width="1.5"></path><path d="M497.55 507.28L497.55 507.28" stroke="rgba(196, 164, 138, 1)" stroke-width="1.5"></path><path d="M497.55 507.28L645.55 547.05" stroke="rgba(196, 164, 138, 1)" stroke-width="1.5"></path><path d="M536.39 681.31L536.39 681.31" stroke="rgba(196, 164, 138, 1)" stroke-width="1.5"></path><path d="M536.39 681.31L664.73 670.82" stroke="rgba(196, 164, 138, 1)" stroke-width="1.5"></path><path d="M664.29 341.6L664.29 341.6" stroke="rgba(196, 164, 138, 1)" stroke-width="1.5"></path><path d="M664.29 341.6L788.73 193.65" stroke="rgba(196, 164, 138, 1)" stroke-width="1.5"></path><path d="M664.29 341.6L645.55 547.05" stroke="rgba(196, 164, 138, 1)" stroke-width="1.5"></path><path d="M645.55 547.05L645.55 547.05" stroke="rgba(196, 164, 138, 1)" stroke-width="1.5"></path><path d="M645.55 547.05L664.73 670.82" stroke="rgba(196, 164, 138, 1)" stroke-width="1.5"></path><path d="M645.55 547.05L536.39 681.31" stroke="rgba(196, 164, 138, 1)" stroke-width="1.5"></path><path d="M645.55 547.05L845.42 548.38" stroke="rgba(196, 164, 138, 1)" stroke-width="1.5"></path><path d="M664.73 670.82L664.73 670.82" stroke="rgba(196, 164, 138, 1)" stroke-width="1.5"></path><path d="M664.73 670.82L814.22 694.43" stroke="rgba(196, 164, 138, 1)" stroke-width="1.5"></path><path d="M664.73 670.82L845.42 548.38" stroke="rgba(196, 164, 138, 1)" stroke-width="1.5"></path><path d="M664.73 670.82L497.55 507.28" stroke="rgba(196, 164, 138, 1)" stroke-width="1.5"></path><path d="M862.05 60.29L862.05 60.29" stroke="rgba(196, 164, 138, 1)" stroke-width="1.5"></path><path d="M862.05 60.29L998.9 95.47" stroke="rgba(196, 164, 138, 1)" stroke-width="1.5"></path><path d="M862.05 60.29L788.73 193.65" stroke="rgba(196, 164, 138, 1)" stroke-width="1.5"></path><path d="M862.05 60.29L937.55 -71.94" stroke="rgba(196, 164, 138, 1)" stroke-width="1.5"></path><path d="M788.73 193.65L788.73 193.65" stroke="rgba(196, 164, 138, 1)" stroke-width="1.5"></path><path d="M788.73 193.65L948.57 222.79" stroke="rgba(196, 164, 138, 1)" stroke-width="1.5"></path><path d="M788.73 193.65L945.34 352.28" stroke="rgba(196, 164, 138, 1)" stroke-width="1.5"></path><path d="M788.73 193.65L860.89 406.77" stroke="rgba(196, 164, 138, 1)" stroke-width="1.5"></path><path d="M788.73 193.65L998.9 95.47" stroke="rgba(196, 164, 138, 1)" stroke-width="1.5"></path><path d="M860.89 406.77L860.89 406.77" stroke="rgba(196, 164, 138, 1)" stroke-width="1.5"></path><path d="M860.89 406.77L945.34 352.28" stroke="rgba(196, 164, 138, 1)" stroke-width="1.5"></path><path d="M860.89 406.77L845.42 548.38" stroke="rgba(196, 164, 138, 1)" stroke-width="1.5"></path><path d="M860.89 406.77L975.43 506.91" stroke="rgba(196, 164, 138, 1)" stroke-width="1.5"></path><path d="M860.89 406.77L948.57 222.79" stroke="rgba(196, 164, 138, 1)" stroke-width="1.5"></path><path d="M860.89 406.77L664.29 341.6" stroke="rgba(196, 164, 138, 1)" stroke-width="1.5"></path><path d="M845.42 548.38L845.42 548.38" stroke="rgba(196, 164, 138, 1)" stroke-width="1.5"></path><path d="M845.42 548.38L975.43 506.91" stroke="rgba(196, 164, 138, 1)" stroke-width="1.5"></path><path d="M814.22 694.43L814.22 694.43" stroke="rgba(196, 164, 138, 1)" stroke-width="1.5"></path><path d="M814.22 694.43L845.42 548.38" stroke="rgba(196, 164, 138, 1)" stroke-width="1.5"></path><path d="M814.22 694.43L990.96 695.11" stroke="rgba(196, 164, 138, 1)" stroke-width="1.5"></path><path d="M814.22 694.43L645.55 547.05" stroke="rgba(196, 164, 138, 1)" stroke-width="1.5"></path><path d="M814.22 694.43L975.43 506.91" stroke="rgba(196, 164, 138, 1)" stroke-width="1.5"></path><path d="M937.55 -71.94L937.55 -71.94" stroke="rgba(196, 164, 138, 1)" stroke-width="1.5"></path><path d="M937.55 -71.94L1098.03 -93.31" stroke="rgba(196, 164, 138, 1)" stroke-width="1.5"></path><path d="M937.55 -71.94L998.9 95.47" stroke="rgba(196, 164, 138, 1)" stroke-width="1.5"></path><path d="M937.55 -71.94L1122.83 96.04" stroke="rgba(196, 164, 138, 1)" stroke-width="1.5"></path><path d="M937.55 -71.94L948.57 222.79" stroke="rgba(196, 164, 138, 1)" stroke-width="1.5"></path><path d="M937.55 -71.94L788.73 193.65" stroke="rgba(196, 164, 138, 1)" stroke-width="1.5"></path><path d="M998.9 95.47L998.9 95.47" stroke="rgba(196, 164, 138, 1)" stroke-width="1.5"></path><path d="M998.9 95.47L1122.83 96.04" stroke="rgba(196, 164, 138, 1)" stroke-width="1.5"></path><path d="M998.9 95.47L948.57 222.79" stroke="rgba(196, 164, 138, 1)" stroke-width="1.5"></path><path d="M948.57 222.79L948.57 222.79" stroke="rgba(196, 164, 138, 1)" stroke-width="1.5"></path><path d="M948.57 222.79L945.34 352.28" stroke="rgba(196, 164, 138, 1)" stroke-width="1.5"></path><path d="M945.34 352.28L945.34 352.28" stroke="rgba(196, 164, 138, 1)" stroke-width="1.5"></path><path d="M945.34 352.28L975.43 506.91" stroke="rgba(196, 164, 138, 1)" stroke-width="1.5"></path><path d="M945.34 352.28L1152.75 349.63" stroke="rgba(196, 164, 138, 1)" stroke-width="1.5"></path><path d="M975.43 506.91L975.43 506.91" stroke="rgba(196, 164, 138, 1)" stroke-width="1.5"></path><path d="M990.96 695.11L990.96 695.11" stroke="rgba(196, 164, 138, 1)" stroke-width="1.5"></path><path d="M990.96 695.11L1104.65 649.35" stroke="rgba(196, 164, 138, 1)" stroke-width="1.5"></path><path d="M990.96 695.11L975.43 506.91" stroke="rgba(196, 164, 138, 1)" stroke-width="1.5"></path><path d="M990.96 695.11L845.42 548.38" stroke="rgba(196, 164, 138, 1)" stroke-width="1.5"></path><path d="M1098.03 -93.31L1098.03 -93.31" stroke="rgba(196, 164, 138, 1)" stroke-width="1.5"></path><path d="M1098.03 -93.31L1265.83 -70.76" stroke="rgba(196, 164, 138, 1)" stroke-width="1.5"></path><path d="M1098.03 -93.31L1122.83 96.04" stroke="rgba(196, 164, 138, 1)" stroke-width="1.5"></path><path d="M1098.03 -93.31L998.9 95.47" stroke="rgba(196, 164, 138, 1)" stroke-width="1.5"></path><path d="M1122.83 96.04L1122.83 96.04" stroke="rgba(196, 164, 138, 1)" stroke-width="1.5"></path><path d="M1122.83 96.04L1244.7 98.69" stroke="rgba(196, 164, 138, 1)" stroke-width="1.5"></path><path d="M1122.83 96.04L1141.11 252.57" stroke="rgba(196, 164, 138, 1)" stroke-width="1.5"></path><path d="M1122.83 96.04L1285.13 235.65" stroke="rgba(196, 164, 138, 1)" stroke-width="1.5"></path><path d="M1122.83 96.04L948.57 222.79" stroke="rgba(196, 164, 138, 1)" stroke-width="1.5"></path><path d="M1141.11 252.57L1141.11 252.57" stroke="rgba(196, 164, 138, 1)" stroke-width="1.5"></path><path d="M1141.11 252.57L1152.75 349.63" stroke="rgba(196, 164, 138, 1)" stroke-width="1.5"></path><path d="M1141.11 252.57L1285.13 235.65" stroke="rgba(196, 164, 138, 1)" stroke-width="1.5"></path><path d="M1141.11 252.57L1245.31 379.68" stroke="rgba(196, 164, 138, 1)" stroke-width="1.5"></path><path d="M1141.11 252.57L1244.7 98.69" stroke="rgba(196, 164, 138, 1)" stroke-width="1.5"></path><path d="M1141.11 252.57L948.57 222.79" stroke="rgba(196, 164, 138, 1)" stroke-width="1.5"></path><path d="M1152.75 349.63L1152.75 349.63" stroke="rgba(196, 164, 138, 1)" stroke-width="1.5"></path><path d="M1152.75 349.63L1245.31 379.68" stroke="rgba(196, 164, 138, 1)" stroke-width="1.5"></path><path d="M1104.65 649.35L1104.65 649.35" stroke="rgba(196, 164, 138, 1)" stroke-width="1.5"></path><path d="M1104.65 649.35L1256.03 640.02" stroke="rgba(196, 164, 138, 1)" stroke-width="1.5"></path><path d="M1104.65 649.35L975.43 506.91" stroke="rgba(196, 164, 138, 1)" stroke-width="1.5"></path><path d="M1104.65 649.35L1261.15 521.08" stroke="rgba(196, 164, 138, 1)" stroke-width="1.5"></path><path d="M1104.65 649.35L845.42 548.38" stroke="rgba(196, 164, 138, 1)" stroke-width="1.5"></path><path d="M1104.65 649.35L814.22 694.43" stroke="rgba(196, 164, 138, 1)" stroke-width="1.5"></path><path d="M1265.83 -70.76L1265.83 -70.76" stroke="rgba(196, 164, 138, 1)" stroke-width="1.5"></path><path d="M1265.83 -70.76L1431.41 -84.6" stroke="rgba(196, 164, 138, 1)" stroke-width="1.5"></path><path d="M1244.7 98.69L1244.7 98.69" stroke="rgba(196, 164, 138, 1)" stroke-width="1.5"></path><path d="M1244.7 98.69L1285.13 235.65" stroke="rgba(196, 164, 138, 1)" stroke-width="1.5"></path><path d="M1244.7 98.69L1265.83 -70.76" stroke="rgba(196, 164, 138, 1)" stroke-width="1.5"></path><path d="M1244.7 98.69L1409.19 37.58" stroke="rgba(196, 164, 138, 1)" stroke-width="1.5"></path><path d="M1285.13 235.65L1285.13 235.65" stroke="rgba(196, 164, 138, 1)" stroke-width="1.5"></path><path d="M1285.13 235.65L1426.88 192.84" stroke="rgba(196, 164, 138, 1)" stroke-width="1.5"></path><path d="M1285.13 235.65L1245.31 379.68" stroke="rgba(196, 164, 138, 1)" stroke-width="1.5"></path><path d="M1285.13 235.65L1392.06 372.62" stroke="rgba(196, 164, 138, 1)" stroke-width="1.5"></path><path d="M1245.31 379.68L1245.31 379.68" stroke="rgba(196, 164, 138, 1)" stroke-width="1.5"></path><path d="M1245.31 379.68L1261.15 521.08" stroke="rgba(196, 164, 138, 1)" stroke-width="1.5"></path><path d="M1245.31 379.68L1392.06 372.62" stroke="rgba(196, 164, 138, 1)" stroke-width="1.5"></path><path d="M1261.15 521.08L1261.15 521.08" stroke="rgba(196, 164, 138, 1)" stroke-width="1.5"></path><path d="M1261.15 521.08L1256.03 640.02" stroke="rgba(196, 164, 138, 1)" stroke-width="1.5"></path><path d="M1261.15 521.08L1430.31 551.37" stroke="rgba(196, 164, 138, 1)" stroke-width="1.5"></path><path d="M1261.15 521.08L1392.06 372.62" stroke="rgba(196, 164, 138, 1)" stroke-width="1.5"></path><path d="M1256.03 640.02L1256.03 640.02" stroke="rgba(196, 164, 138, 1)" stroke-width="1.5"></path><path d="M1431.41 -84.6L1431.41 -84.6" stroke="rgba(196, 164, 138, 1)" stroke-width="1.5"></path><path d="M1431.41 -84.6L1409.19 37.58" stroke="rgba(196, 164, 138, 1)" stroke-width="1.5"></path><path d="M1409.19 37.58L1409.19 37.58" stroke="rgba(196, 164, 138, 1)" stroke-width="1.5"></path><path d="M1409.19 37.58L1550.11 55.4" stroke="rgba(196, 164, 138, 1)" stroke-width="1.5"></path><path d="M1409.19 37.58L1426.88 192.84" stroke="rgba(196, 164, 138, 1)" stroke-width="1.5"></path><path d="M1426.88 192.84L1426.88 192.84" stroke="rgba(196, 164, 138, 1)" stroke-width="1.5"></path><path d="M1392.06 372.62L1392.06 372.62" stroke="rgba(196, 164, 138, 1)" stroke-width="1.5"></path><path d="M1392.06 372.62L1430.31 551.37" stroke="rgba(196, 164, 138, 1)" stroke-width="1.5"></path><path d="M1392.06 372.62L1426.88 192.84" stroke="rgba(196, 164, 138, 1)" stroke-width="1.5"></path><path d="M1430.31 551.37L1430.31 551.37" stroke="rgba(196, 164, 138, 1)" stroke-width="1.5"></path><path d="M1430.31 551.37L1598.6 538.08" stroke="rgba(196, 164, 138, 1)" stroke-width="1.5"></path><path d="M1604.76 -74.18L1604.76 -74.18" stroke="rgba(196, 164, 138, 1)" stroke-width="1.5"></path><path d="M1604.76 -74.18L1550.11 55.4" stroke="rgba(196, 164, 138, 1)" stroke-width="1.5"></path><path d="M1604.76 -74.18L1431.41 -84.6" stroke="rgba(196, 164, 138, 1)" stroke-width="1.5"></path><path d="M1604.76 -74.18L1409.19 37.58" stroke="rgba(196, 164, 138, 1)" stroke-width="1.5"></path><path d="M1550.11 55.4L1550.11 55.4" stroke="rgba(196, 164, 138, 1)" stroke-width="1.5"></path><path d="M1604.39 193.5L1604.39 193.5" stroke="rgba(196, 164, 138, 1)" stroke-width="1.5"></path><path d="M1604.39 193.5L1550.11 55.4" stroke="rgba(196, 164, 138, 1)" stroke-width="1.5"></path><path d="M1604.39 193.5L1599.09 361.04" stroke="rgba(196, 164, 138, 1)" stroke-width="1.5"></path><path d="M1604.39 193.5L1426.88 192.84" stroke="rgba(196, 164, 138, 1)" stroke-width="1.5"></path><path d="M1604.39 193.5L1409.19 37.58" stroke="rgba(196, 164, 138, 1)" stroke-width="1.5"></path><path d="M1604.39 193.5L1604.76 -74.18" stroke="rgba(196, 164, 138, 1)" stroke-width="1.5"></path><path d="M1599.09 361.04L1599.09 361.04" stroke="rgba(196, 164, 138, 1)" stroke-width="1.5"></path><path d="M1599.09 361.04L1598.6 538.08" stroke="rgba(196, 164, 138, 1)" stroke-width="1.5"></path><path d="M1599.09 361.04L1392.06 372.62" stroke="rgba(196, 164, 138, 1)" stroke-width="1.5"></path><path d="M1599.09 361.04L1426.88 192.84" stroke="rgba(196, 164, 138, 1)" stroke-width="1.5"></path><path d="M1599.09 361.04L1430.31 551.37" stroke="rgba(196, 164, 138, 1)" stroke-width="1.5"></path><path d="M1598.6 538.08L1598.6 538.08" stroke="rgba(196, 164, 138, 1)" stroke-width="1.5"></path><path d="M1598.6 538.08L1579.47 690" stroke="rgba(196, 164, 138, 1)" stroke-width="1.5"></path><path d="M1598.6 538.08L1392.06 372.62" stroke="rgba(196, 164, 138, 1)" stroke-width="1.5"></path><path d="M1598.6 538.08L1261.15 521.08" stroke="rgba(196, 164, 138, 1)" stroke-width="1.5"></path><path d="M1598.6 538.08L1604.39 193.5" stroke="rgba(196, 164, 138, 1)" stroke-width="1.5"></path><path d="M1579.47 690L1579.47 690" stroke="rgba(196, 164, 138, 1)" stroke-width="1.5"></path><path d="M1579.47 690L1430.31 551.37" stroke="rgba(196, 164, 138, 1)" stroke-width="1.5"></path><circle r="5" cx="-64.72" cy="373.88" fill="rgba(196, 164, 138, 1)"></circle><circle r="5" cx="-60.03" cy="518.69" fill="rgba(196, 164, 138, 1)"></circle><circle r="5" cx="-111.91" cy="706.25" fill="rgba(196, 164, 138, 1)"></circle><circle r="5" cx="78.96" cy="346.35" fill="rgba(196, 164, 138, 1)"></circle><circle r="5" cx="39.9" cy="709.91" fill="rgba(196, 164, 138, 1)"></circle><circle r="5" cx="226.2" cy="342.84" fill="rgba(196, 164, 138, 1)"></circle><circle r="5" cx="213.75" cy="517.89" fill="rgba(196, 164, 138, 1)"></circle><circle r="5" cx="198.18" cy="692.16" fill="rgba(196, 164, 138, 1)"></circle><circle r="5" cx="386.06" cy="372.1" fill="rgba(196, 164, 138, 1)"></circle><circle r="5" cx="398.92" cy="549.14" fill="rgba(196, 164, 138, 1)"></circle><circle r="5" cx="395.47" cy="671.77" fill="rgba(196, 164, 138, 1)"></circle><circle r="5" cx="552.81" cy="351.61" fill="rgba(196, 164, 138, 1)"></circle><circle r="5" cx="497.55" cy="507.28" fill="rgba(196, 164, 138, 1)"></circle><circle r="5" cx="536.39" cy="681.31" fill="rgba(196, 164, 138, 1)"></circle><circle r="5" cx="664.29" cy="341.6" fill="rgba(196, 164, 138, 1)"></circle><circle r="5" cx="645.55" cy="547.05" fill="rgba(196, 164, 138, 1)"></circle><circle r="5" cx="664.73" cy="670.82" fill="rgba(196, 164, 138, 1)"></circle><circle r="5" cx="862.05" cy="60.29" fill="rgba(196, 164, 138, 1)"></circle><circle r="5" cx="788.73" cy="193.65" fill="rgba(196, 164, 138, 1)"></circle><circle r="5" cx="860.89" cy="406.77" fill="rgba(196, 164, 138, 1)"></circle><circle r="5" cx="845.42" cy="548.38" fill="rgba(196, 164, 138, 1)"></circle><circle r="5" cx="814.22" cy="694.43" fill="rgba(196, 164, 138, 1)"></circle><circle r="5" cx="937.55" cy="-71.94" fill="rgba(196, 164, 138, 1)"></circle><circle r="5" cx="998.9" cy="95.47" fill="rgba(196, 164, 138, 1)"></circle><circle r="5" cx="948.57" cy="222.79" fill="rgba(196, 164, 138, 1)"></circle><circle r="5" cx="945.34" cy="352.28" fill="rgba(196, 164, 138, 1)"></circle><circle r="5" cx="975.43" cy="506.91" fill="rgba(196, 164, 138, 1)"></circle><circle r="5" cx="990.96" cy="695.11" fill="rgba(196, 164, 138, 1)"></circle><circle r="5" cx="1098.03" cy="-93.31" fill="rgba(196, 164, 138, 1)"></circle><circle r="5" cx="1122.83" cy="96.04" fill="rgba(196, 164, 138, 1)"></circle><circle r="5" cx="1141.11" cy="252.57" fill="rgba(196, 164, 138, 1)"></circle><circle r="5" cx="1152.75" cy="349.63" fill="rgba(196, 164, 138, 1)"></circle><circle r="5" cx="1104.65" cy="649.35" fill="rgba(196, 164, 138, 1)"></circle><circle r="5" cx="1265.83" cy="-70.76" fill="rgba(196, 164, 138, 1)"></circle><circle r="5" cx="1244.7" cy="98.69" fill="rgba(196, 164, 138, 1)"></circle><circle r="5" cx="1285.13" cy="235.65" fill="rgba(196, 164, 138, 1)"></circle><circle r="5" cx="1245.31" cy="379.68" fill="rgba(196, 164, 138, 1)"></circle><circle r="5" cx="1261.15" cy="521.08" fill="rgba(196, 164, 138, 1)"></circle><circle r="5" cx="1256.03" cy="640.02" fill="rgba(196, 164, 138, 1)"></circle><circle r="5" cx="1431.41" cy="-84.6" fill="rgba(196, 164, 138, 1)"></circle><circle r="5" cx="1409.19" cy="37.58" fill="rgba(196, 164, 138, 1)"></circle><circle r="5" cx="1426.88" cy="192.84" fill="rgba(196, 164, 138, 1)"></circle><circle r="5" cx="1392.06" cy="372.62" fill="rgba(196, 164, 138, 1)"></circle><circle r="5" cx="1430.31" cy="551.37" fill="rgba(196, 164, 138, 1)"></circle><circle r="5" cx="1604.76" cy="-74.18" fill="rgba(196, 164, 138, 1)"></circle><circle r="5" cx="1550.11" cy="55.4" fill="rgba(196, 164, 138, 1)"></circle><circle r="5" cx="1604.39" cy="193.5" fill="rgba(196, 164, 138, 1)"></circle><circle r="5" cx="1599.09" cy="361.04" fill="rgba(196, 164, 138, 1)"></circle><circle r="5" cx="1598.6" cy="538.08" fill="rgba(196, 164, 138, 1)"></circle><circle r="5" cx="1579.47" cy="690" fill="rgba(196, 164, 138, 1)"></circle><path d="M-83.67 693.28L-83.67 693.28" stroke="hsl(14.199999999999989, 80.6%, 63%)" stroke-width="1.5"></path><path d="M-83.67 693.28L-80.02 552.75" stroke="hsl(14.199999999999989, 80.6%, 63%)" stroke-width="1.5"></path><path d="M-83.67 693.28L63.78 701.39" stroke="hsl(14.199999999999989, 80.6%, 63%)" stroke-width="1.5"></path><path d="M-83.67 693.28L111.03 560.08" stroke="hsl(14.199999999999989, 80.6%, 63%)" stroke-width="1.5"></path><path d="M-83.67 693.28L212.79 697.19" stroke="hsl(14.199999999999989, 80.6%, 63%)" stroke-width="1.5"></path><path d="M-83.67 693.28L234.83 515.89" stroke="hsl(14.199999999999989, 80.6%, 63%)" stroke-width="1.5"></path><path d="M-83.67 693.28L343.21 708.62" stroke="hsl(14.199999999999989, 80.6%, 63%)" stroke-width="1.5"></path><path d="M524.34 545.13L524.34 545.13" stroke="hsl(14.199999999999989, 80.6%, 63%)" stroke-width="1.5"></path><path d="M524.34 545.13L376.85 527.97" stroke="hsl(14.199999999999989, 80.6%, 63%)" stroke-width="1.5"></path><path d="M524.34 545.13L670.49 516.31" stroke="hsl(14.199999999999989, 80.6%, 63%)" stroke-width="1.5"></path><path d="M524.34 545.13L679.91 641.89" stroke="hsl(14.199999999999989, 80.6%, 63%)" stroke-width="1.5"></path><path d="M964.38 520.42L964.38 520.42" stroke="hsl(14.199999999999989, 80.6%, 63%)" stroke-width="1.5"></path><path d="M964.38 520.42L963.5 379.53" stroke="hsl(14.199999999999989, 80.6%, 63%)" stroke-width="1.5"></path><path d="M964.38 520.42L798.65 542.4" stroke="hsl(14.199999999999989, 80.6%, 63%)" stroke-width="1.5"></path><path d="M1266.38 516.11L1266.38 516.11" stroke="hsl(14.199999999999989, 80.6%, 63%)" stroke-width="1.5"></path><path d="M1266.38 516.11L1145.19 503.58" stroke="hsl(14.199999999999989, 80.6%, 63%)" stroke-width="1.5"></path><path d="M1266.38 516.11L1406.02 540.6" stroke="hsl(14.199999999999989, 80.6%, 63%)" stroke-width="1.5"></path><path d="M1266.38 516.11L1269.69 362.19" stroke="hsl(14.199999999999989, 80.6%, 63%)" stroke-width="1.5"></path><path d="M1440.54 375.78L1440.54 375.78" stroke="hsl(14.199999999999989, 80.6%, 63%)" stroke-width="1.5"></path><path d="M1440.54 375.78L1563.89 357.98" stroke="hsl(14.199999999999989, 80.6%, 63%)" stroke-width="1.5"></path><path d="M1440.54 375.78L1403.1 214.5" stroke="hsl(14.199999999999989, 80.6%, 63%)" stroke-width="1.5"></path><path d="M1440.54 375.78L1406.02 540.6" stroke="hsl(14.199999999999989, 80.6%, 63%)" stroke-width="1.5"></path><path d="M1440.54 375.78L1269.69 362.19" stroke="hsl(14.199999999999989, 80.6%, 63%)" stroke-width="1.5"></path><path d="M1440.54 375.78L1310.97 242.61" stroke="hsl(14.199999999999989, 80.6%, 63%)" stroke-width="1.5"></path><path d="M1544.39 94.21L1544.39 94.21" stroke="hsl(14.199999999999989, 80.6%, 63%)" stroke-width="1.5"></path><path d="M1544.39 94.21L1573.46 219.57" stroke="hsl(14.199999999999989, 80.6%, 63%)" stroke-width="1.5"></path><path d="M1544.39 94.21L1403.1 214.5" stroke="hsl(14.199999999999989, 80.6%, 63%)" stroke-width="1.5"></path><path d="M1544.39 94.21L1566.66 -90.99" stroke="hsl(14.199999999999989, 80.6%, 63%)" stroke-width="1.5"></path><path d="M1544.39 94.21L1406.68 -103.5" stroke="hsl(14.199999999999989, 80.6%, 63%)" stroke-width="1.5"></path><path d="M1544.39 94.21L1563.89 357.98" stroke="hsl(14.199999999999989, 80.6%, 63%)" stroke-width="1.5"></path><path d="M-80.02 552.75L-80.02 552.75" stroke="hsl(14.199999999999989, 80.6%, 63%)" stroke-width="1.5"></path><path d="M-80.02 552.75L111.03 560.08" stroke="hsl(14.199999999999989, 80.6%, 63%)" stroke-width="1.5"></path><path d="M111.03 560.08L111.03 560.08" stroke="hsl(14.199999999999989, 80.6%, 63%)" stroke-width="1.5"></path><path d="M111.03 560.08L234.83 515.89" stroke="hsl(14.199999999999989, 80.6%, 63%)" stroke-width="1.5"></path><path d="M111.03 560.08L63.78 701.39" stroke="hsl(14.199999999999989, 80.6%, 63%)" stroke-width="1.5"></path><path d="M111.03 560.08L212.79 697.19" stroke="hsl(14.199999999999989, 80.6%, 63%)" stroke-width="1.5"></path><path d="M111.03 560.08L376.85 527.97" stroke="hsl(14.199999999999989, 80.6%, 63%)" stroke-width="1.5"></path><path d="M63.78 701.39L63.78 701.39" stroke="hsl(14.199999999999989, 80.6%, 63%)" stroke-width="1.5"></path><path d="M63.78 701.39L212.79 697.19" stroke="hsl(14.199999999999989, 80.6%, 63%)" stroke-width="1.5"></path><path d="M63.78 701.39L-80.02 552.75" stroke="hsl(14.199999999999989, 80.6%, 63%)" stroke-width="1.5"></path><path d="M234.83 515.89L234.83 515.89" stroke="hsl(14.199999999999989, 80.6%, 63%)" stroke-width="1.5"></path><path d="M234.83 515.89L376.85 527.97" stroke="hsl(14.199999999999989, 80.6%, 63%)" stroke-width="1.5"></path><path d="M234.83 515.89L212.79 697.19" stroke="hsl(14.199999999999989, 80.6%, 63%)" stroke-width="1.5"></path><path d="M234.83 515.89L343.21 708.62" stroke="hsl(14.199999999999989, 80.6%, 63%)" stroke-width="1.5"></path><path d="M234.83 515.89L63.78 701.39" stroke="hsl(14.199999999999989, 80.6%, 63%)" stroke-width="1.5"></path><path d="M234.83 515.89L524.34 545.13" stroke="hsl(14.199999999999989, 80.6%, 63%)" stroke-width="1.5"></path><path d="M212.79 697.19L212.79 697.19" stroke="hsl(14.199999999999989, 80.6%, 63%)" stroke-width="1.5"></path><path d="M212.79 697.19L343.21 708.62" stroke="hsl(14.199999999999989, 80.6%, 63%)" stroke-width="1.5"></path><path d="M212.79 697.19L376.85 527.97" stroke="hsl(14.199999999999989, 80.6%, 63%)" stroke-width="1.5"></path><path d="M376.85 527.97L376.85 527.97" stroke="hsl(14.199999999999989, 80.6%, 63%)" stroke-width="1.5"></path><path d="M376.85 527.97L343.21 708.62" stroke="hsl(14.199999999999989, 80.6%, 63%)" stroke-width="1.5"></path><path d="M376.85 527.97L670.49 516.31" stroke="hsl(14.199999999999989, 80.6%, 63%)" stroke-width="1.5"></path><path d="M343.21 708.62L343.21 708.62" stroke="hsl(14.199999999999989, 80.6%, 63%)" stroke-width="1.5"></path><path d="M670.49 516.31L670.49 516.31" stroke="hsl(14.199999999999989, 80.6%, 63%)" stroke-width="1.5"></path><path d="M670.49 516.31L679.91 641.89" stroke="hsl(14.199999999999989, 80.6%, 63%)" stroke-width="1.5"></path><path d="M670.49 516.31L798.65 542.4" stroke="hsl(14.199999999999989, 80.6%, 63%)" stroke-width="1.5"></path><path d="M679.91 641.89L679.91 641.89" stroke="hsl(14.199999999999989, 80.6%, 63%)" stroke-width="1.5"></path><path d="M679.91 641.89L827.9 662.61" stroke="hsl(14.199999999999989, 80.6%, 63%)" stroke-width="1.5"></path><path d="M679.91 641.89L798.65 542.4" stroke="hsl(14.199999999999989, 80.6%, 63%)" stroke-width="1.5"></path><path d="M789.31 352.49L789.31 352.49" stroke="hsl(14.199999999999989, 80.6%, 63%)" stroke-width="1.5"></path><path d="M789.31 352.49L963.5 379.53" stroke="hsl(14.199999999999989, 80.6%, 63%)" stroke-width="1.5"></path><path d="M789.31 352.49L798.65 542.4" stroke="hsl(14.199999999999989, 80.6%, 63%)" stroke-width="1.5"></path><path d="M789.31 352.49L670.49 516.31" stroke="hsl(14.199999999999989, 80.6%, 63%)" stroke-width="1.5"></path><path d="M798.65 542.4L798.65 542.4" stroke="hsl(14.199999999999989, 80.6%, 63%)" stroke-width="1.5"></path><path d="M798.65 542.4L827.9 662.61" stroke="hsl(14.199999999999989, 80.6%, 63%)" stroke-width="1.5"></path><path d="M798.65 542.4L951.97 692.57" stroke="hsl(14.199999999999989, 80.6%, 63%)" stroke-width="1.5"></path><path d="M827.9 662.61L827.9 662.61" stroke="hsl(14.199999999999989, 80.6%, 63%)" stroke-width="1.5"></path><path d="M827.9 662.61L951.97 692.57" stroke="hsl(14.199999999999989, 80.6%, 63%)" stroke-width="1.5"></path><path d="M827.9 662.61L964.38 520.42" stroke="hsl(14.199999999999989, 80.6%, 63%)" stroke-width="1.5"></path><path d="M963.5 379.53L963.5 379.53" stroke="hsl(14.199999999999989, 80.6%, 63%)" stroke-width="1.5"></path><path d="M963.5 379.53L1142.47 378.27" stroke="hsl(14.199999999999989, 80.6%, 63%)" stroke-width="1.5"></path><path d="M951.97 692.57L951.97 692.57" stroke="hsl(14.199999999999989, 80.6%, 63%)" stroke-width="1.5"></path><path d="M951.97 692.57L964.38 520.42" stroke="hsl(14.199999999999989, 80.6%, 63%)" stroke-width="1.5"></path><path d="M951.97 692.57L1139.22 679.36" stroke="hsl(14.199999999999989, 80.6%, 63%)" stroke-width="1.5"></path><path d="M951.97 692.57L1145.19 503.58" stroke="hsl(14.199999999999989, 80.6%, 63%)" stroke-width="1.5"></path><path d="M951.97 692.57L679.91 641.89" stroke="hsl(14.199999999999989, 80.6%, 63%)" stroke-width="1.5"></path><path d="M1146.41 234.27L1146.41 234.27" stroke="hsl(14.199999999999989, 80.6%, 63%)" stroke-width="1.5"></path><path d="M1146.41 234.27L1142.47 378.27" stroke="hsl(14.199999999999989, 80.6%, 63%)" stroke-width="1.5"></path><path d="M1146.41 234.27L1310.97 242.61" stroke="hsl(14.199999999999989, 80.6%, 63%)" stroke-width="1.5"></path><path d="M1146.41 234.27L1269.69 362.19" stroke="hsl(14.199999999999989, 80.6%, 63%)" stroke-width="1.5"></path><path d="M1146.41 234.27L1268.69 62.45" stroke="hsl(14.199999999999989, 80.6%, 63%)" stroke-width="1.5"></path><path d="M1146.41 234.27L963.5 379.53" stroke="hsl(14.199999999999989, 80.6%, 63%)" stroke-width="1.5"></path><path d="M1146.41 234.27L1403.1 214.5" stroke="hsl(14.199999999999989, 80.6%, 63%)" stroke-width="1.5"></path><path d="M1142.47 378.27L1142.47 378.27" stroke="hsl(14.199999999999989, 80.6%, 63%)" stroke-width="1.5"></path><path d="M1142.47 378.27L1145.19 503.58" stroke="hsl(14.199999999999989, 80.6%, 63%)" stroke-width="1.5"></path><path d="M1142.47 378.27L1269.69 362.19" stroke="hsl(14.199999999999989, 80.6%, 63%)" stroke-width="1.5"></path><path d="M1145.19 503.58L1145.19 503.58" stroke="hsl(14.199999999999989, 80.6%, 63%)" stroke-width="1.5"></path><path d="M1145.19 503.58L1139.22 679.36" stroke="hsl(14.199999999999989, 80.6%, 63%)" stroke-width="1.5"></path><path d="M1145.19 503.58L964.38 520.42" stroke="hsl(14.199999999999989, 80.6%, 63%)" stroke-width="1.5"></path><path d="M1145.19 503.58L1269.69 362.19" stroke="hsl(14.199999999999989, 80.6%, 63%)" stroke-width="1.5"></path><path d="M1139.22 679.36L1139.22 679.36" stroke="hsl(14.199999999999989, 80.6%, 63%)" stroke-width="1.5"></path><path d="M1139.22 679.36L1266.38 516.11" stroke="hsl(14.199999999999989, 80.6%, 63%)" stroke-width="1.5"></path><path d="M1290.74 -109.72L1290.74 -109.72" stroke="hsl(14.199999999999989, 80.6%, 63%)" stroke-width="1.5"></path><path d="M1290.74 -109.72L1406.68 -103.5" stroke="hsl(14.199999999999989, 80.6%, 63%)" stroke-width="1.5"></path><path d="M1268.69 62.45L1268.69 62.45" stroke="hsl(14.199999999999989, 80.6%, 63%)" stroke-width="1.5"></path><path d="M1268.69 62.45L1290.74 -109.72" stroke="hsl(14.199999999999989, 80.6%, 63%)" stroke-width="1.5"></path><path d="M1268.69 62.45L1310.97 242.61" stroke="hsl(14.199999999999989, 80.6%, 63%)" stroke-width="1.5"></path><path d="M1268.69 62.45L1403.1 214.5" stroke="hsl(14.199999999999989, 80.6%, 63%)" stroke-width="1.5"></path><path d="M1310.97 242.61L1310.97 242.61" stroke="hsl(14.199999999999989, 80.6%, 63%)" stroke-width="1.5"></path><path d="M1310.97 242.61L1403.1 214.5" stroke="hsl(14.199999999999989, 80.6%, 63%)" stroke-width="1.5"></path><path d="M1310.97 242.61L1269.69 362.19" stroke="hsl(14.199999999999989, 80.6%, 63%)" stroke-width="1.5"></path><path d="M1269.69 362.19L1269.69 362.19" stroke="hsl(14.199999999999989, 80.6%, 63%)" stroke-width="1.5"></path><path d="M1406.68 -103.5L1406.68 -103.5" stroke="hsl(14.199999999999989, 80.6%, 63%)" stroke-width="1.5"></path><path d="M1406.68 -103.5L1566.66 -90.99" stroke="hsl(14.199999999999989, 80.6%, 63%)" stroke-width="1.5"></path><path d="M1406.68 -103.5L1268.69 62.45" stroke="hsl(14.199999999999989, 80.6%, 63%)" stroke-width="1.5"></path><path d="M1406.68 -103.5L1403.1 214.5" stroke="hsl(14.199999999999989, 80.6%, 63%)" stroke-width="1.5"></path><path d="M1403.1 214.5L1403.1 214.5" stroke="hsl(14.199999999999989, 80.6%, 63%)" stroke-width="1.5"></path><path d="M1403.1 214.5L1573.46 219.57" stroke="hsl(14.199999999999989, 80.6%, 63%)" stroke-width="1.5"></path><path d="M1406.02 540.6L1406.02 540.6" stroke="hsl(14.199999999999989, 80.6%, 63%)" stroke-width="1.5"></path><path d="M1406.02 540.6L1548.06 541.37" stroke="hsl(14.199999999999989, 80.6%, 63%)" stroke-width="1.5"></path><path d="M1406.02 540.6L1269.69 362.19" stroke="hsl(14.199999999999989, 80.6%, 63%)" stroke-width="1.5"></path><path d="M1406.02 540.6L1597.94 659" stroke="hsl(14.199999999999989, 80.6%, 63%)" stroke-width="1.5"></path><path d="M1566.66 -90.99L1566.66 -90.99" stroke="hsl(14.199999999999989, 80.6%, 63%)" stroke-width="1.5"></path><path d="M1566.66 -90.99L1290.74 -109.72" stroke="hsl(14.199999999999989, 80.6%, 63%)" stroke-width="1.5"></path><path d="M1573.46 219.57L1573.46 219.57" stroke="hsl(14.199999999999989, 80.6%, 63%)" stroke-width="1.5"></path><path d="M1573.46 219.57L1563.89 357.98" stroke="hsl(14.199999999999989, 80.6%, 63%)" stroke-width="1.5"></path><path d="M1563.89 357.98L1563.89 357.98" stroke="hsl(14.199999999999989, 80.6%, 63%)" stroke-width="1.5"></path><path d="M1548.06 541.37L1548.06 541.37" stroke="hsl(14.199999999999989, 80.6%, 63%)" stroke-width="1.5"></path><path d="M1548.06 541.37L1597.94 659" stroke="hsl(14.199999999999989, 80.6%, 63%)" stroke-width="1.5"></path><path d="M1548.06 541.37L1563.89 357.98" stroke="hsl(14.199999999999989, 80.6%, 63%)" stroke-width="1.5"></path><path d="M1548.06 541.37L1440.54 375.78" stroke="hsl(14.199999999999989, 80.6%, 63%)" stroke-width="1.5"></path><path d="M1548.06 541.37L1266.38 516.11" stroke="hsl(14.199999999999989, 80.6%, 63%)" stroke-width="1.5"></path><path d="M1548.06 541.37L1573.46 219.57" stroke="hsl(14.199999999999989, 80.6%, 63%)" stroke-width="1.5"></path><path d="M1597.94 659L1597.94 659" stroke="hsl(14.199999999999989, 80.6%, 63%)" stroke-width="1.5"></path><path d="M1597.94 659L1563.89 357.98" stroke="hsl(14.199999999999989, 80.6%, 63%)" stroke-width="1.5"></path><path d="M1597.94 659L1440.54 375.78" stroke="hsl(14.199999999999989, 80.6%, 63%)" stroke-width="1.5"></path><circle r="25" cx="-83.67" cy="693.28" fill="url(#SvgjsRadialGradient1015)"></circle><circle r="25" cx="524.34" cy="545.13" fill="url(#SvgjsRadialGradient1015)"></circle><circle r="25" cx="964.38" cy="520.42" fill="url(#SvgjsRadialGradient1015)"></circle><circle r="25" cx="1266.38" cy="516.11" fill="url(#SvgjsRadialGradient1015)"></circle><circle r="25" cx="1440.54" cy="375.78" fill="url(#SvgjsRadialGradient1015)"></circle><circle r="25" cx="1544.39" cy="94.21" fill="url(#SvgjsRadialGradient1015)"></circle><circle r="5" cx="-80.02" cy="552.75" fill="#efa38c"></circle><circle r="5" cx="111.03" cy="560.08" fill="#efa38c"></circle><circle r="5" cx="63.78" cy="701.39" fill="#efa38c"></circle><circle r="5" cx="234.83" cy="515.89" fill="#efa38c"></circle><circle r="5" cx="212.79" cy="697.19" fill="#efa38c"></circle><circle r="5" cx="376.85" cy="527.97" fill="#efa38c"></circle><circle r="5" cx="343.21" cy="708.62" fill="#efa38c"></circle><circle r="5" cx="670.49" cy="516.31" fill="#efa38c"></circle><circle r="5" cx="679.91" cy="641.89" fill="#efa38c"></circle><circle r="5" cx="789.31" cy="352.49" fill="#efa38c"></circle><circle r="5" cx="798.65" cy="542.4" fill="#efa38c"></circle><circle r="5" cx="827.9" cy="662.61" fill="#efa38c"></circle><circle r="5" cx="963.5" cy="379.53" fill="#efa38c"></circle><circle r="5" cx="951.97" cy="692.57" fill="#efa38c"></circle><circle r="5" cx="1146.41" cy="234.27" fill="#efa38c"></circle><circle r="5" cx="1142.47" cy="378.27" fill="#efa38c"></circle><circle r="5" cx="1145.19" cy="503.58" fill="#efa38c"></circle><circle r="5" cx="1139.22" cy="679.36" fill="#efa38c"></circle><circle r="5" cx="1290.74" cy="-109.72" fill="#efa38c"></circle><circle r="5" cx="1268.69" cy="62.45" fill="#efa38c"></circle><circle r="5" cx="1310.97" cy="242.61" fill="#efa38c"></circle><circle r="5" cx="1269.69" cy="362.19" fill="#efa38c"></circle><circle r="5" cx="1406.68" cy="-103.5" fill="#efa38c"></circle><circle r="5" cx="1403.1" cy="214.5" fill="#efa38c"></circle><circle r="5" cx="1406.02" cy="540.6" fill="#efa38c"></circle><circle r="5" cx="1566.66" cy="-90.99" fill="#efa38c"></circle><circle r="5" cx="1573.46" cy="219.57" fill="#efa38c"></circle><circle r="5" cx="1563.89" cy="357.98" fill="#efa38c"></circle><circle r="5" cx="1548.06" cy="541.37" fill="#efa38c"></circle><circle r="5" cx="1597.94" cy="659" fill="#efa38c"></circle></g><defs><mask id="SvgjsMask1014"><rect width="1440" height="560" fill="#ffffff"></rect></mask><radialGradient id="SvgjsRadialGradient1015"><stop stop-color="#ffffff" offset="0.1"></stop><stop stop-color="rgba(223, 71, 24, 1)" offset="0.2"></stop><stop stop-color="rgba(223, 71, 24, 0)" offset="1"></stop></radialGradient></defs></svg>